# xmcd
#
# Track frame offsets: 
#        150
#        123516
#        179499
#        272270
#
# Disc length: 4418 seconds
#
# Revision: 0
# Processed by: cddbd v1.5.1PL2 Copyright (c) Steve Scherf et al.
# Submitted via: ExactAudioCopy v0.95b4
#
DISCID=30114004
DTITLE=Various Artist - Presentation of Young Artists Supervided by Hossein A
DTITLE=lizadeh
DYEAR=2001
DGENRE=Persian
TTITLE0=Payan Jahanmani - Dastgah e Rast-Panjgah
TTITLE1=Padideh Ahrarnezhad - Dastgah-e Mahur
TTITLE2=Bahareh Fayyazi - Dastgah-e Chahargah
TTITLE3=Sahba Motallebi - Avaz-e Bayat-e Esfahan
EXTD=
EXTT0=
EXTT1=
EXTT2=
EXTT3=
PLAYORDER=
